<svg viewBox="0 0 40 40" fill="none"
  xmlns="http://www.w3.org/2000/svg">
  <path d="M20 40c11.047 0 20-8.954 20-20.002C39.996 8.954 31.043 0 20 0 8.953 0 0 8.954 0 20.002 0 31.046 8.953 40 20 40Z" fill="#CF1126"/>
  <path d="M6.248 24.519 4.84 19.307c-1.334-5.04 1.163-8.301 6.477-8.301 2.934 0 4.778 1.73 4.778 4.457 0 2.118-1.481 3.505-3.758 3.505-1.575 0-2.547-.828-2.547-2.142 0-1 .751-1.73 1.772-1.73.897 0 1.505.607 1.505 1.558 0 .074 0 .147-.024.22.437-.17.702-.607.702-1.24 0-1.51-.971-2.339-2.718-2.339-3.057 0-4.342 1.898-3.493 5.09l1.408 5.236c.8 2.873 1.963 4.016 4.174 4.016 2.061 0 3.273-.878 3.253-2.339.024-.804-.314-1.387-.85-1.583.025.122.05.27.05.387 0 .878-.678 1.486-1.6 1.486-.996 0-1.722-.73-1.722-1.73 0-1.388 1.09-2.29 2.767-2.29 2.183 0 3.615 1.535 3.615 3.893 0 2.85-2.11 4.53-5.7 4.53-3.624.009-5.66-1.648-6.68-5.472Z" fill="#fff"/>
  <path d="M28.908 21.235h-5.362l1.526 5.697c1.187 4.482-.461 7.718-3.954 7.718-2.086 0-3.273-1.118-3.273-2.922 0-1.094.824-1.898 1.893-1.898 1.045 0 1.722.706 1.722 1.75a2 2 0 0 1-.24.952c1.48.122 2.11-1.486 1.407-4.09L18.11 11.572c0-.22.75-.364 1.506-.364.632 0 1.26.098 1.359.364l1.942 7.232h5.338l-1.55-5.771c-1.07-3.992.558-6.938 3.782-6.938 1.82 0 2.91 1 2.91 2.653 0 1.073-.776 1.897-1.87 1.897-1.044 0-1.721-.681-1.721-1.75 0-.368.098-.682.265-.927-1.09.245-1.433 1.535-.898 3.53l4.779 17.941c0 .22-.751.368-1.506.368-.629 0-1.261-.098-1.36-.368l-2.178-8.203Z" fill="#fff"/>
</svg>
