<svg fill="none" xmlns="http://www.w3.org/2000/svg" viewBox="0 0 24 26">
    <path d="M22.818 1c-8.534 1.932-15.25 3.443-15.25 3.443v13.954c-.505-.096-.985-.234-1.473-.271-1.695-.129-3.213.263-4.345 1.534-1.122 1.258-.96 2.988.333 4.098 1.171 1.008 2.896 1.324 3.84 1.225 3.1-.325 4.164-2.051 4.168-3.504.012-4.394.002-13.417.002-13.417L20.26 5.79v8.34c-.458-.09-.912-.22-1.374-.264-1.589-.149-3.03.19-4.194 1.277-1.368 1.28-1.286 3.21.171 4.408 1.045.86 2.281 1.196 3.647 1.144 1.203-.045 2.286-.402 3.187-1.176.747-.644 1.124-1.444 1.124-2.406C22.816 11.74 22.818 1 22.818 1z" fill="#000" fill-opacity=".24" stroke="#F2F0EA" stroke-width=".5"/>
</svg>
